<svg xmlns="http://www.w3.org/2000/svg" viewBox="0 0 750 500"><g id="freepik--background-simple--inject-63"><path d="M697.92,156c-9.58-20.39-22.41-39-39.12-54.53-57.48-53.4-155-62.15-236.06-39.75-23.95,6.62-47.39,16.5-68.37,30.73-15.25,10.34-28.9,22.83-44.11,33.21-16,10.91-33.49,10.41-51.06,8.68q-37.93-3.74-75.36-9.64c-21.73-3.43-41.92-8.39-64.8-3.37C80.39,129.84,46,160.06,28.9,194.87,7.47,238.58,9.29,287.83,22,331c4.41,15,10.24,29.61,11.22,45.53,1,16.55,5.71,33.62,16.26,46.34,12.28,14.79,34.25,20.73,53.33,25.24,37,8.76,76.91,6.53,115.83-.75,36.66-6.86,75.08-19.82,112.3-18.45,41.76,1.54,78.74,19.92,118.52,29.23,35.6,8.33,73.62,9.62,111.38,4.81,34.26-4.37,72.11-12,100.51-35.25,75-61.51,70.7-170.41,46.88-244.88A222.68,222.68,0,0,0,697.92,156Z" style="fill:#92E3A9"></path><path d="M697.92,156c-9.58-20.39-22.41-39-39.12-54.53-57.48-53.4-155-62.15-236.06-39.75-23.95,6.62-47.39,16.5-68.37,30.73-15.25,10.34-28.9,22.83-44.11,33.21-16,10.91-33.49,10.41-51.06,8.68q-37.93-3.74-75.36-9.64c-21.73-3.43-41.92-8.39-64.8-3.37C80.39,129.84,46,160.06,28.9,194.87,7.47,238.58,9.29,287.83,22,331c4.41,15,10.24,29.61,11.22,45.53,1,16.55,5.71,33.62,16.26,46.34,12.28,14.79,34.25,20.73,53.33,25.24,37,8.76,76.91,6.53,115.83-.75,36.66-6.86,75.08-19.82,112.3-18.45,41.76,1.54,78.74,19.92,118.52,29.23,35.6,8.33,73.62,9.62,111.38,4.81,34.26-4.37,72.11-12,100.51-35.25,75-61.51,70.7-170.41,46.88-244.88A222.68,222.68,0,0,0,697.92,156Z" style="fill:#fff;opacity:0.7000000000000001"></path></g><g id="freepik--Lamps--inject-63"><path d="M205.94,50.11h0a22.21,22.21,0,0,1,22.21,22.21V87a0,0,0,0,1,0,0H183.72a0,0,0,0,1,0,0V72.32a22.21,22.21,0,0,1,22.21-22.21Z" style="fill:#fff;stroke:#263238;stroke-linecap:round;stroke-linejoin:round"></path><line x1="205.94" y1="50.11" x2="205.94" y2="25.5" style="fill:none;stroke:#263238;stroke-linecap:round;stroke-linejoin:round"></line><path d="M527.86,50.11h0a22.21,22.21,0,0,1,22.21,22.21V87a0,0,0,0,1,0,0H505.64a0,0,0,0,1,0,0V72.32A22.21,22.21,0,0,1,527.86,50.11Z" style="fill:#fff;stroke:#263238;stroke-linecap:round;stroke-linejoin:round"></path><line x1="527.86" y1="50.11" x2="527.86" y2="25.5" style="fill:none;stroke:#263238;stroke-linecap:round;stroke-linejoin:round"></line></g><g id="freepik--Picture--inject-63"><rect x="567.71" y="82.61" width="123.82" height="151.34" style="fill:#fff;stroke:#263238;stroke-linecap:round;stroke-linejoin:round"></rect><rect x="567.71" y="82.61" width="123.82" height="151.34" style="fill:#fff;stroke:#263238;stroke-linecap:round;stroke-linejoin:round"></rect><path d="M691.53,82.61v58.54a80,80,0,0,1-25.95,17.63c-32.12,13-73.82-1.37-49.9-47.16a312.89,312.89,0,0,0,13.53-29Z" style="fill:#fff;stroke:#263238;stroke-linecap:round;stroke-linejoin:round"></path><path d="M691.53,178.31V234h-10.4C666.25,228.84,650,220.87,647.81,210,644.85,195.22,674.74,183.61,691.53,178.31Z" style="fill:#fff;stroke:#263238;stroke-linecap:round;stroke-linejoin:round"></path><path d="M618.92,234H567.71V210.53c21.55-20.91,54.18-48.61,59.59-30.56C633.5,200.62,620.59,221.65,618.92,234Z" style="fill:#fff;stroke:#263238;stroke-linecap:round;stroke-linejoin:round"></path><path d="M601.33,137.59c0,9.16-18.33,15.06-33.62,18.4V102C580.39,110.68,601.33,126.63,601.33,137.59Z" style="fill:#fff;stroke:#263238;stroke-linecap:round;stroke-linejoin:round"></path><ellipse cx="645.42" cy="129.05" rx="17.43" ry="16.06" style="fill:#fff;stroke:#263238;stroke-linecap:round;stroke-linejoin:round"></ellipse><path d="M600,169c0,3-2.76,5.46-6.16,5.46s-6.15-2.44-6.15-5.46,2.76-5.47,6.15-5.47S600,166,600,169Z" style="fill:#fff;stroke:#263238;stroke-linecap:round;stroke-linejoin:round"></path><path d="M654,185.44a7.52,7.52,0,1,1-7.52-7.52A7.52,7.52,0,0,1,654,185.44Z" style="fill:#fff;stroke:#263238;stroke-linecap:round;stroke-linejoin:round"></path><path d="M669.68,206.63a2.74,2.74,0,1,1-2.73-2.74A2.73,2.73,0,0,1,669.68,206.63Z" style="fill:#fff;stroke:#263238;stroke-linecap:round;stroke-linejoin:round"></path><circle cx="612.27" cy="103.42" r="12.99" transform="translate(106.2 463.23) rotate(-45)" style="fill:#fff;stroke:#263238;stroke-linecap:round;stroke-linejoin:round"></circle></g><g id="freepik--Plant--inject-63"><ellipse cx="651.14" cy="290.07" rx="10.15" ry="26.61" style="fill:#92E3A9;stroke:#263238;stroke-miterlimit:10"></ellipse><path d="M619.62,273.66c3.17,10,9.26,16.95,13.61,15.57s5.29-10.59,2.12-20.57-9.26-17-13.61-15.58S616.45,263.67,619.62,273.66Z" style="fill:#92E3A9;stroke:#263238;stroke-miterlimit:10"></path><path d="M694.06,333.85c10.33-1.75,18.09-6.81,17.33-11.3s-9.76-6.72-20.08-5-18.08,6.81-17.32,11.3S683.74,335.6,694.06,333.85Z" style="fill:#92E3A9;stroke:#263238;stroke-miterlimit:10"></path><path d="M610.07,309.25c8.62,8.55,18.81,12.26,22.76,8.28s.15-14.13-8.47-22.69-18.82-12.26-22.77-8.28S601.44,300.69,610.07,309.25Z" style="fill:#92E3A9;stroke:#263238;stroke-miterlimit:10"></path><path d="M669.5,285.78c-8.34,12.11-10.82,24.86-5.55,28.5s16.32-3.23,24.66-15.33,10.82-24.86,5.55-28.49S677.84,273.68,669.5,285.78Z" style="fill:#92E3A9;stroke:#263238;stroke-miterlimit:10"></path><line x1="650.43" y1="315.35" x2="649.65" y2="396.31" style="fill:none;stroke:#263238;stroke-linecap:round;stroke-miterlimit:10"></line><line x1="651.38" y1="280.17" x2="650.43" y2="315.35" style="fill:none;stroke:#263238;stroke-linecap:round;stroke-miterlimit:10"></line><line x1="651.31" y1="274.43" x2="651.38" y2="277.13" style="fill:none;stroke:#263238;stroke-linecap:round;stroke-miterlimit:10"></line><path d="M664,312.55A102.3,102.3,0,0,0,654,351V401" style="fill:none;stroke:#263238;stroke-linecap:round;stroke-miterlimit:10"></path><path d="M681.42,285.89A120.29,120.29,0,0,0,664,312.55" style="fill:none;stroke:#263238;stroke-linecap:round;stroke-miterlimit:10"></path><path d="M686.9,280.09s-1,1-2.78,2.8" style="fill:none;stroke:#263238;stroke-linecap:round;stroke-miterlimit:10"></path><path d="M632.2,316.31A120.27,120.27,0,0,1,648.65,349" style="fill:none;stroke:#263238;stroke-linecap:round;stroke-miterlimit:10"></path><path d="M620.53,302.89a96.36,96.36,0,0,1,11.67,13.42" style="fill:none;stroke:#263238;stroke-linecap:round;stroke-miterlimit:10"></path><path d="M608.06,293.4a53,53,0,0,1,8.89,6.29" style="fill:none;stroke:#263238;stroke-linecap:round;stroke-miterlimit:10"></path><path d="M632.63,286.76c5.62,17.69,13.16,43.83,16.68,66.51" style="fill:none;stroke:#263238;stroke-linecap:round;stroke-miterlimit:10"></path><path d="M629.2,276.27c1,3,2.17,6.52,3.43,10.49" style="fill:none;stroke:#263238;stroke-linecap:round;stroke-miterlimit:10"></path><path d="M625.69,266.12s1,2.71,2.57,7.35" style="fill:none;stroke:#263238;stroke-linecap:round;stroke-miterlimit:10"></path><path d="M674.51,326.43c-7,2.66-16.63,10.09-20,19.82" style="fill:none;stroke:#263238;stroke-linecap:round;stroke-miterlimit:10"></path><path d="M687.48,323.79a44.19,44.19,0,0,0-13,2.64" style="fill:none;stroke:#263238;stroke-linecap:round;stroke-miterlimit:10"></path><path d="M695.88,324s-1.25-.18-3.31-.26" style="fill:none;stroke:#263238;stroke-linecap:round;stroke-miterlimit:10"></path><path d="M673.81,372.77c9.49,4.43,18.75,4.67,20.67.54s-4.2-11.07-13.69-15.5-18.75-4.68-20.68-.55S664.32,368.33,673.81,372.77Z" style="fill:#92E3A9;stroke:#263238;stroke-miterlimit:10"></path><path d="M674.11,360.75a44.29,44.29,0,0,0-12.17-5.21,6.08,6.08,0,0,0-6.53.12c-1.29.86-.86,7.28-.86,7.28v33.37" style="fill:none;stroke:#263238;stroke-linecap:round;stroke-miterlimit:10"></path><path d="M680.9,365.69s-.92-.85-2.57-2.09" style="fill:none;stroke:#263238;stroke-linecap:round;stroke-miterlimit:10"></path><path d="M605.69,333.85c-10.33-1.75-18.08-6.81-17.32-11.3s9.75-6.72,20.07-5,18.09,6.81,17.32,11.3S616,335.6,605.69,333.85Z" style="fill:#92E3A9;stroke:#263238;stroke-miterlimit:10"></path><path d="M625,326.35A32.17,32.17,0,0,1,628.7,328a25.72,25.72,0,0,1,13.76,22.94V395" style="fill:none;stroke:#263238;stroke-linecap:round;stroke-miterlimit:10"></path><path d="M611.19,323.74A45,45,0,0,1,625,326.35" style="fill:none;stroke:#263238;stroke-linecap:round;stroke-miterlimit:10"></path><path d="M603.87,324s.82-.12,2.23-.2" style="fill:none;stroke:#263238;stroke-linecap:round;stroke-miterlimit:10"></path><path d="M616.05,364.07c-9.07,5.23-18.27,6.27-20.55,2.32s3.24-11.39,12.31-16.62,18.28-6.27,20.55-2.32S625.13,358.84,616.05,364.07Z" style="fill:#92E3A9;stroke:#263238;stroke-miterlimit:10"></path><path d="M613.85,352.77a45.06,45.06,0,0,1,12.33-6.8s11.25-1.86,13.82,5.41" style="fill:none;stroke:#263238;stroke-linecap:round;stroke-miterlimit:10"></path><path d="M608.38,357.64s.56-.62,1.59-1.59" style="fill:none;stroke:#263238;stroke-linecap:round;stroke-miterlimit:10"></path><path d="M638.29,351.81s13.26-2.56,13.26,6.42-9.41,16.26-13.26,26.53-11.12,10.7-15,.43S625,356.09,638.29,351.81Z" style="fill:#92E3A9;stroke:#263238;stroke-miterlimit:10"></path><path d="M647.28,352.24s-11.56,4.71-15,19.68" style="fill:#92E3A9;stroke:#263238;stroke-miterlimit:10"></path><line x1="646.42" y1="371.92" x2="646.42" y2="396.31" style="fill:none;stroke:#263238;stroke-linecap:round;stroke-miterlimit:10"></line><path d="M625.17,443.8a104.07,104.07,0,0,1-4.8-31.21,94.29,94.29,0,0,1,1.92-19.09h54a93.58,93.58,0,0,1,1.92,19.09,104.07,104.07,0,0,1-4.79,31.21Z" style="fill:#263238"></path><path d="M677.72,402.42c.16,1.47.27,3,.36,4.46H620.54c.09-1.5.21-3,.37-4.46Z" style="fill:#7a7a7a"></path><path d="M621.16,425.23c-.18-1.48-.34-3-.46-4.46h57.23c-.12,1.49-.28,3-.46,4.46Z" style="fill:#7a7a7a"></path><path d="M671.27,412.83a2.33,2.33,0,1,0,2.33-2.24A2.28,2.28,0,0,0,671.27,412.83Z" style="fill:#8c8c8c"></path><path d="M659.63,412.83a2.33,2.33,0,1,0,2.32-2.24A2.28,2.28,0,0,0,659.63,412.83Z" style="fill:#8c8c8c"></path><path d="M648,412.83a2.33,2.33,0,1,0,2.33-2.24A2.28,2.28,0,0,0,648,412.83Z" style="fill:#8c8c8c"></path><path d="M636.34,412.83a2.33,2.33,0,1,0,2.33-2.24A2.28,2.28,0,0,0,636.34,412.83Z" style="fill:#8c8c8c"></path><path d="M624.7,412.83a2.33,2.33,0,1,0,2.32-2.24A2.28,2.28,0,0,0,624.7,412.83Z" style="fill:#8c8c8c"></path></g><g id="freepik--character-3--inject-63"><path d="M531.36,220.92l-1.78-6.16s-.6-5.17-1.59-6.36-4.78-3.18-6.17-4.57-2.58-1.4-2.78-.2.2,3,.79,3.38,2.59,2.18,2.59,2.18-4.43-2.77-5.63-3.77-5.5-3.19-6.1-2.39.2,2.58.2,2.58-2.58-.56-2.58,1.23a2.59,2.59,0,0,0,1.19,2.39s-1.7.57-1.3,2,2.72,2.5,2.72,2.5-2.28.37-1.09,2,6.23,4.87,8.81,6.07a56.49,56.49,0,0,0,5.77,2.18l6.36,4.58Z" style="fill:#fff;stroke:#263238;stroke-linecap:round;stroke-linejoin:round"></path><path d="M510.89,205.61s3.78,2.79,4.57,3.58a18.7,18.7,0,0,0,3,2" style="fill:none;stroke:#263238;stroke-linecap:round;stroke-linejoin:round"></path><polyline points="509.62 209.41 515.99 213.18 516.9 213.8" style="fill:none;stroke:#263238;stroke-linecap:round;stroke-linejoin:round"></polyline><line x1="522.42" y1="209.19" x2="523.21" y2="212.57" style="fill:none;stroke:#263238;stroke-linecap:round;stroke-linejoin:round"></line><polygon points="548.46 230.27 531.37 220.92 528.38 229.07 546.08 245.18 548.46 230.27" style="fill:#92E3A9;stroke:#263238;stroke-linecap:round;stroke-linejoin:round"></polygon><path d="M561.45,189.42S546.37,204.91,545,213.65s-2.19,53.6-2.19,53.6S553.31,269,554.31,269h6.35s-2.58-39.91-.79-53.61,8.33-26,8.33-26A10.6,10.6,0,0,0,561.45,189.42Z" style="fill:#92E3A9;stroke:#263238;stroke-linecap:round;stroke-linejoin:round"></path><path d="M550.44,264.52l1,26.72s-6,19-1.67,39.75a226.55,226.55,0,0,1,4.67,37.75s2,14.69,2,21.71-2.34,35.07-2.34,35.07-2.34,3.34-5,6.68-9.35,5.35-10.36,8,4,1.67,8,1.67a42.54,42.54,0,0,0,13-2.67c2-1,6.34-.34,7.35-1s2.33-4.67,2-7.68,2.67-29.39,4.68-39.75-1-30.39-1-30.39,6-54.11,6.34-57.46,4-18.7,3.34-24.38-1.33-14.7-1.33-16S550.44,264.52,550.44,264.52Z" style="fill:#263238;stroke:#263238;stroke-linecap:round;stroke-linejoin:round"></path><path d="M565.47,295.25s-3.34,34.41-2,50.44,3.68,34.07,5.35,38.41,3.67,27.06,3.67,33.41.34,17,.34,17-6,6-10.36,8-6,3.67-3.67,4.67,6.68,2,14,1,13.69-1,14.69-3.68.67-9.69.67-9.69,1.67-32.06,1.67-47.43-4.68-33.07-4.68-33.07l4-28.72s8-15.37,8.35-29.73-7.68-31.06-8.35-32.07-28.72,2-28.72,2" style="fill:#263238;stroke:#263238;stroke-linecap:round;stroke-linejoin:round"></path><path d="M556.11,294.25a10.81,10.81,0,0,0,5.68,6.35" style="fill:none;stroke:#fff;stroke-linecap:round;stroke-linejoin:round"></path><path d="M569.14,430.53a1.93,1.93,0,0,1,0-.25,19.88,19.88,0,0,1-14,.92v-1.34a21.15,21.15,0,0,0-1-4.34s-2.34,3.34-5,6.68-9.35,5.35-10.36,8,4,1.67,8,1.67a42.54,42.54,0,0,0,13-2.67c2-1,6.34-.34,7.35-1S569.47,433.54,569.14,430.53Z" style="fill:#fff;stroke:#263238;stroke-linecap:round;stroke-linejoin:round"></path><path d="M587.51,444.56c.77-2.06.75-6.68.7-8.7a76.55,76.55,0,0,1-11.05,2l-1-2.34c-1-2.34-3.34-1-3.34-1s-6,6-10.36,8-6,3.67-3.67,4.67,6.68,2,14,1S586.51,447.23,587.51,444.56Z" style="fill:#fff;stroke:#263238;stroke-linecap:round;stroke-linejoin:round"></path><path d="M561.06,193.79s-14.5,17.67-14.89,21.84,3.17,50.83,3.77,51.22A47.26,47.26,0,0,0,560.66,269c2.78,0,6.15-.4,6.15-.4s-1.58-46.06-.39-55.79,9.13-18.46,10.72-22.63-4.77-4.37-6.55-3.77S561.06,193.79,561.06,193.79Z" style="fill:#fff;stroke:#263238;stroke-linecap:round;stroke-linejoin:round"></path><path d="M553.51,141.77s-6.55,9.14-6.15,11.72.79,4.56,0,5.95-5.16,2.78-4.77,5,4,4,4,4,2,11.12,4.17,12.31,7.94-.4,7.94-.4l1.39,10.33s-5.55,8.53-1.78,8.73,20.45-13.3,20.45-13.3l-1.59-6s3.57-7.94,3.77-15.88-7.34-21.05-13.3-23.83S557.09,139.19,553.51,141.77Z" style="fill:#fff;stroke:#263238;stroke-linecap:round;stroke-linejoin:round"></path><polygon points="558.67 180.29 564.03 179.1 559.67 186.05 558.67 180.29" style="fill:#263238;stroke:#263238;stroke-linecap:round;stroke-linejoin:round"></polygon><path d="M549.94,168.58s3.37,1.19,6.15-2.58" style="fill:none;stroke:#263238;stroke-linecap:round;stroke-linejoin:round"></path><path d="M554.31,158.05c0,1.1-.49,2-1.09,2s-1.1-.89-1.1-2,.49-2,1.1-2S554.31,157,554.31,158.05Z" style="fill:#263238"></path><path d="M550.73,153.29s3.38-2.78,5.17.6" style="fill:none;stroke:#263238;stroke-linecap:round;stroke-linejoin:round"></path><path d="M555.1,142s5.16,7.94,8.94,12.91,7.74,11.71,6.55,15.29-5.36,2.18-4.17,4.56,8.14,6,12.51,5.56,8.73-5.56,12.11-10.52,8.34-14.1,2.38-25.22-14.49-16.28-23-16.67-22.83,2.58-24.22,8.53,4.17,10.33,4.17,10.33Z" style="fill:#263238;stroke:#263238;stroke-linecap:round;stroke-linejoin:round"></path><path d="M569.2,192s-15.89,22.84-16.68,29,3.77,49.24,3.77,49.24a85.4,85.4,0,0,0,20.25,0,75.37,75.37,0,0,0,19.66-6.16s-5.56-23.22-5.56-26.8,1.39-28-2.18-35.74a90.36,90.36,0,0,0-9.73-15.48,15.24,15.24,0,0,0-1.79-.2C576.34,185.85,572.57,188.43,569.2,192Z" style="fill:#92E3A9;stroke:#263238;stroke-linecap:round;stroke-linejoin:round"></path><path d="M532.86,226.75,527.7,224a53.44,53.44,0,0,0-2.78-6.95c-1-1.59-3.77-1.19-5-1s-4.77-.8-7-1.79-3.18.2-2.38,1.39a14.45,14.45,0,0,0,2.58,2.58s-9.13.4-9.73.4-4.17-1-3.37,1.59,7.54,7.14,10.92,7.74,12.11.2,12.11.2l5.16,4Z" style="fill:#fff;stroke:#263238;stroke-linecap:round;stroke-linejoin:round"></path><polyline points="513.21 218.21 518.17 219.8 520.75 220.59" style="fill:none;stroke:#263238;stroke-linecap:round;stroke-linejoin:round"></polyline><path d="M500.45,219s4.23,2.72,5.14,3.17,7.7.91,7.7.91" style="fill:none;stroke:#263238;stroke-linecap:round;stroke-linejoin:round"></path><path d="M502,222.72s7,2.72,7.7,2.72,4.08-.15,4.08-.15" style="fill:none;stroke:#263238;stroke-linecap:round;stroke-linejoin:round"></path><path d="M570.59,204.91l-13.5,34-24.23-12.11-6.94,8.73s28.59,22,30.77,23,6.15,1.39,6.95.79,22.63-37.13,22.63-37.13" style="fill:#92E3A9;stroke:#263238;stroke-linecap:round;stroke-linejoin:round"></path><path d="M564.91,301.94s-2,38.1,0,52.75,5.57,36.64,5.57,36.64" style="fill:none;stroke:#fff;stroke-linecap:round;stroke-linejoin:round"></path></g><g id="freepik--character-2--inject-63"><path d="M429.17,268.6s-2.41,42.7-2.86,50.69.46,49.07,3.18,53.21,6,44.64,6,44.64-2.42.88-2.5,2.36,0,5.62,0,5.62-8.05,6.5-12.59,8.28-4.35,3.84-1.73,4.43,9.94,2.07,15.32.89,10.87-3.85,13.26-4.44,5.62,0,7.2-1.77.72-7.39.72-7.39,1-1.48.09-6.8-1.91-8-1.83-9.46-.17-49.07-.17-49.07l.09-53.51s4.41,52.32,5.45,55,8.73,44.05,9.2,46.12.58,10.64.58,10.64-2.26,3.25-2.31,4.14,1.06,7.39,1.06,7.39-7.27,8.28-11.23,10.35.6,5,4.43,5.32,8.24.59,13.68-1.48,12.66-9.46,14.24-11.23.54-4.44,0-5.91-1.33-2.66-1-3.85a101.7,101.7,0,0,0,2.58-14.19c.24-4.14.46-8,.46-8s.47-23.94-1-34-4.89-28.38-4.89-28.38-2.76-44.94-2.35-47,2.07-9.12,1.47-15.37a70.16,70.16,0,0,0-1.52-9.76Z" style="fill:#263238;stroke:#263238;stroke-linecap:round;stroke-linejoin:round"></path><path d="M452.11,186s-23.47,7.63-23.51,9.4-5.78,39.35-5.78,39.35l-28.68,19.6s4.05,2.74,4.78,5.29l.72,2.54,30-9.61s-1.51,14.88-.75,16.05,5.23,2.35,5.23,2.35,26.79,1.57,35.61,1.18,12.55-1,13.17-2.55,1-1,1.06-3.33,16.13-73.22,16.15-74.4a4.33,4.33,0,0,0-2.26-3.72c-1.55-.78-22.37-6.85-22.37-6.85Z" style="fill:#fff;stroke:#263238;stroke-linecap:round;stroke-linejoin:round"></path><polygon points="448.4 194.4 450.51 204.87 440.39 255.38 443.93 269.51 454.55 254.1 454.37 204.44 462.77 192.88 459.06 186.21 448.4 194.4" style="fill:#92E3A9;stroke:#263238;stroke-linecap:round;stroke-linejoin:round"></polygon><polygon points="441.19 251.38 451.67 258.27 454.55 254.1 454.54 251.77 442.68 243.98 441.19 251.38" style="fill:#263238"></polygon><polygon points="447.18 221.5 445.58 229.48 454.49 237.5 454.46 228.05 447.18 221.5" style="fill:#263238"></polygon><polygon points="449.18 198.26 450.51 204.87 449.83 208.25 454.4 212.34 454.38 204.44 455.05 203.52 449.18 198.26" style="fill:#263238"></polygon><line x1="433.7" y1="212.68" x2="434.19" y2="208.1" style="fill:#fff;stroke:#263238;stroke-linecap:round;stroke-linejoin:round"></line><line x1="429.73" y1="249.61" x2="433.15" y2="217.77" style="fill:#fff;stroke:#263238;stroke-linecap:round;stroke-linejoin:round"></line><polygon points="451.22 199.93 444.87 185.78 453.21 180.5 451.22 199.93" style="fill:#fff;stroke:#263238;stroke-linecap:round;stroke-linejoin:round"></polygon><polygon points="444.87 185.78 442.46 197.33 448.4 194.4 444.87 185.78" style="fill:#fff;stroke:#263238;stroke-linecap:round;stroke-linejoin:round"></polygon><path d="M451.92,132.68s-6.69,22.6-7.17,32,2.39,13.45,4.79,14.26l2.13.8-.45,20.18,7.22-10.22.62-3.5,14-13.72,3.16-8.87s5.36,1.07,7.08-3.77-.37-7.53-.37-7.53,7.16-7.53,4.68-16.68-9-18.29-21.38-18.29S445.37,124.88,451.92,132.68Z" style="fill:#fff;stroke:#263238;stroke-linecap:round;stroke-linejoin:round"></path><path d="M487.63,135.64c-2.49-9.14-9-18.29-21.38-18.29s-20.88,7.53-14.33,15.33c0,0,4.23,3.5,7.2,3s4.9-2.69,9.95,0,5.54,4.84,3.85,8.34-1.46,5.11-.69,6.46a4.73,4.73,0,0,1,.27.51l-4.85,12.13s-1.54-3.23-7.94-5.92-14,1.35-14,1.35c-5,21.74,6,21.24,6,21.24s13-2.42,16.81-5.91,4.44-5.92,4.79-9.69c.21-2.23.2-7.22.15-10.9.35,1,.59,1.76.59,1.76a6.62,6.62,0,0,1,3.84-3.23,7.14,7.14,0,0,1,5.1.54S490.11,144.79,487.63,135.64Z" style="fill:#263238;stroke:#263238;stroke-linecap:round;stroke-linejoin:round"></path><path d="M457,144.25l-2.3,6.72s-7.64,4.58-6,5.11,7-1.07,7-1.07" style="fill:none;stroke:#263238;stroke-linecap:round;stroke-linejoin:round"></path><path d="M448.56,162.54s3.16,3.23,9.16-.81" style="fill:none;stroke:#fff;stroke-linecap:round;stroke-linejoin:round"></path><path d="M462.21,150.21c-.18.93-.82,1.61-1.42,1.5s-1-.94-.78-1.88.82-1.61,1.43-1.51S462.39,149.27,462.21,150.21Z" style="fill:#263238"></path><path d="M452.72,148.88c-.18.94-.82,1.62-1.43,1.51s-1-.95-.77-1.88.81-1.61,1.42-1.51S452.9,148,452.72,148.88Z" style="fill:#263238"></path><path d="M450.55,143.28a5.72,5.72,0,0,1,4.89,0" style="fill:none;stroke:#263238;stroke-linecap:round;stroke-linejoin:round"></path><path d="M460.72,143.94a6.56,6.56,0,0,1,5.5,2.38" style="fill:none;stroke:#263238;stroke-linecap:round;stroke-linejoin:round"></path><polygon points="458.44 189.71 460.85 197.72 478.29 179.91 473.08 172.49 459.06 186.21 458.44 189.71" style="fill:#fff;stroke:#263238;stroke-linecap:round;stroke-linejoin:round"></polygon><path d="M408.93,269s-3.75-2-2.06-2.25,4.63.85,4.63.85-3.6-2.68-1.77-2.54,4.73,2.4,4.73,2.4-.93-2.4.88-1.69a7.36,7.36,0,0,1,2.77,1.83s-2,2.39-3.72,2.67-1.28.56-2.39.14S408.93,269,408.93,269Z" style="fill:#fff;stroke:#263238;stroke-linecap:round;stroke-linejoin:round"></path><path d="M434.67,256.46s-9.62,0-11,1.16-3.32,4.15-4,4.61-8.32.7-8.12,2.31,4.8,1.84,4.8,1.84L413,269.84s-7.09-2.53-7.58-1.15,7.51,4.38,9.35,4.38,5.57-1.15,6.27-1.84,8.3-7.59,8.3-7.59c.33.76,5.85-.52,6.08-1.33S434.67,256.46,434.67,256.46Z" style="fill:#fff;stroke:#263238;stroke-linecap:round;stroke-linejoin:round"></path><path d="M416.3,266.38a35.53,35.53,0,0,0,5.92.12c1.69-.28,3.72-2.67,3.72-2.67" style="fill:none;stroke:#263238;stroke-linecap:round;stroke-linejoin:round"></path><path d="M481.5,202.62l-9.26,37.59-37.57,16.25,1,8.23s32.28-3.68,40.15-5.64,17.6-7.44,18.87-11.75,7.7-50.36,7.58-53.88-.5-3.92-2-4.9-13.05-3.13-13.05-3.13" style="fill:#fff;stroke:#263238;stroke-linecap:round;stroke-linejoin:round"></path><line x1="440.4" y1="254.31" x2="441.77" y2="262.73" style="fill:none;stroke:#263238;stroke-linecap:round;stroke-linejoin:round"></line><path d="M397.91,252a6.66,6.66,0,0,1,5.51,7.64" style="fill:none;stroke:#263238;stroke-linecap:round;stroke-linejoin:round"></path><path d="M394.14,254.33l-5.29,2.55a34.08,34.08,0,0,0-4.36-.92c-.92,0-2.1,1.15-4.84,0s-5-2.77-5.06-.69a4.29,4.29,0,0,0,2.67,4.15c1.38.46,3,1.15,3,1.15l-8.73,8.77s-4.48,4.38-3.35,5.07,11.34-1.61,13-2.08,10.93-4.15,12.36-6,2.14-3,2.14-3l4-1.18S398.63,256.39,394.14,254.33Z" style="fill:none;stroke:#263238;stroke-linecap:round;stroke-linejoin:round"></path><path d="M390.31,263.8s-4.59-.69-6.46.23-4.5,5.08-4.5,5.08-6,1.84-7.45,3.22" style="fill:none;stroke:#263238;stroke-linecap:round;stroke-linejoin:round"></path></g><g id="freepik--Device--inject-63"><rect x="253.86" y="281.17" width="26.05" height="9.77" style="fill:#fff;stroke:#263238;stroke-linecap:round;stroke-linejoin:round"></rect><rect x="212.34" y="206.9" width="109.09" height="78.82" rx="4.13" style="fill:#263238;stroke:#263238;stroke-linecap:round;stroke-linejoin:round"></rect><path d="M212.34,273v8.56a4.13,4.13,0,0,0,4.13,4.13H317.3a4.13,4.13,0,0,0,4.13-4.13V273Z" style="fill:#fff;stroke:#263238;stroke-linecap:round;stroke-linejoin:round"></path></g><g id="freepik--Seat--inject-63"><path d="M391.57,207.29l-33.48.27s-2.21-.27-2.76,1.39c0,0-5.81,14.66-6.09,19.91s1.11,4.43-1.1,11.34-8.58,23.24-12.18,36.52c-4.83,17.84-6.09,36.79-6.39,55.2-.05,3-1.82,28.39,2.78,28.39,3.82,0,39,4.67,39.46-2.12,1.69-27.06-3.2-53.5,6.2-79.81,3.65-10.22,7.84-21,10.93-31.71s3.64-21.8,5.67-32.75C396,206.46,391.57,207.29,391.57,207.29Z" style="fill:#263238;stroke:#263238;stroke-miterlimit:10"></path><path d="M394.84,210.6c-.33-3.86-3.27-3.31-3.27-3.31l-33.48.27s-2.21-.27-2.76,1.39c0,0-5.81,14.66-6.09,19.91a26.84,26.84,0,0,0,.12,4.17l.71,1.09s1.11,9.68,14.39,10.23S385.2,238.82,388,233s3.87-15.21,6.09-20.75A17.71,17.71,0,0,1,394.84,210.6Z" style="fill:#bababa;stroke:#263238;stroke-linecap:round;stroke-linejoin:round"></path><path d="M387.08,221.4c-2.24,8.09-.89,10.33-3.14,24.25s-10.32,29.63-13.47,44-1.79,65.1-1.34,67.35a19.77,19.77,0,0,1,.19,3.6c1.51-.56,2.42-1.34,2.49-2.4,1.69-27.06-3.2-53.5,6.2-79.81,3.65-10.22,7.84-21,10.93-31.71s3.64-21.8,5.67-32.75c.85-4.58-.49-6-1.66-6.48l0,.05A60,60,0,0,0,387.08,221.4Z" style="fill:#bababa;stroke:#263238;stroke-linecap:round;stroke-linejoin:round"></path><path d="M322.44,425.68l-.23-.18V394.25h4.49V374.5H310.09v19.75h4.49V426l-39.73,12.66v3.15a3.59,3.59,0,0,0,7.18,0v-.45l33.22-3.86v4.76a3.15,3.15,0,0,0,6.29,0v-4.92l34.57,4v.45a3.59,3.59,0,0,0,7.18,0v-3.15Z" style="fill:#263238;stroke:#263238;stroke-miterlimit:10"></path><rect x="266.59" y="355.22" width="107.77" height="22.91" rx="4" style="fill:#263238;stroke:#263238;stroke-miterlimit:10"></rect></g><g id="freepik--Table--inject-63"><polygon points="222.82 443.81 218.35 443.81 215.44 313.32 226.74 313.32 222.82 443.81" style="fill:#263238;stroke:#263238;stroke-miterlimit:10"></polygon><polygon points="444.11 443.81 439.63 443.81 436.72 313.32 448.02 313.32 444.11 443.81" style="fill:#263238;stroke:#263238;stroke-miterlimit:10"></polygon><polygon points="192.41 293.14 196.26 448.43 200.89 448.43 204.74 319.67 466.11 319.67 469.46 448.43 476.47 448.43 477.98 293.14 192.41 293.14" style="fill:#fff;stroke:#263238;stroke-linecap:round;stroke-linejoin:round"></polygon><rect x="192.54" y="296.87" width="285.23" height="4.3" style="fill:#757575;stroke:#263238;stroke-miterlimit:10"></rect><rect x="186.39" y="290.59" width="293.59" height="6.79" style="fill:#fff;stroke:#263238;stroke-linecap:round;stroke-linejoin:round"></rect></g><g id="freepik--character-1--inject-63"><line x1="719.96" y1="436.85" x2="18.13" y2="436.85" style="fill:none;stroke:#263238;stroke-linecap:round;stroke-linejoin:round"></line><path d="M168,294.61s.87,6,1.66,7.85,1.58,4.46.53,6.3-9.49,5.6-9.49,5.6l-.23-23.45,7.12-1.13Z" style="fill:#fff;stroke:#263238;stroke-linecap:round;stroke-linejoin:round"></path><path d="M165.9,300.17s-.23,2.55-.75,5.44-.63,6.23-3.78,6" style="fill:#fff;stroke:#263238;stroke-linecap:round;stroke-linejoin:round"></path><polygon points="159.11 190.88 164.36 248.38 168.04 291.96 159.38 292.22 154.91 253.36 159.11 190.88" style="fill:#fff;stroke:#263238;stroke-linecap:round;stroke-linejoin:round"></polygon><path d="M103.05,258.55s-2.54,22.42-2,25.3,2.28,67.56,2.28,67.56-3.84,22.73-3.7,26.89S101,428.25,101,428.25s-2.6,8.64-3,10.56.11,4.81,1.37,5.45,9.54,1.6,13.08,1,7.74-1.28,8.57-5.77-1.78-10.88-1.38-12.8a57.67,57.67,0,0,0,1-7.69l.18-4.16s6.58-42.26,6.64-43.54,4-41.31,4-41.31-.46,56.36-.83,65.32-1.76,18.89-1.81,20.17-1.36,17-1.09,18.25,2.47,2.24,4.37,2.56,7.05,0,8,0,7.93,1.6,12.42,1.6,9.63-.64,8.79-3.52-8.08-5.76-10.27-7-5.07-9-5.07-9,2.18-6.08,2.32-9.28,9.8-50.27,11.31-63.4.19-73,.19-73L161,258.88S123.24,265.92,103.05,258.55Z" style="fill:#263238;stroke:#263238;stroke-linecap:round;stroke-linejoin:round"></path><path d="M112.9,173.81s-12.6,10.24-18.38,13.39-12.33,7.35-12.33,7.35-7.62,64.33-6.83,66.69,3.94,36.23,3.94,36.23L90.85,297l2.89-41.22,6-20,.78,23.63s-.52,3.42,2.37,4.73S131,267.8,143.62,267s16.54-5.52,17.07-8.14,1.31-48.73,1.57-53.72-2.33-18-8.56-25.29c-1.71-2-20.84-5.53-20.84-5.53S119.73,170.14,112.9,173.81Z" style="fill:#fff;stroke:#263238;stroke-linecap:round;stroke-linejoin:round"></path><path d="M129.33,186.09l7.12,9.63-2.51,58.63s5.44,7.12,6.28,8.38,7.54-10.05,7.54-10.05l-8-56.12,3.35-10.05-1.9-5.88-9.41-2.92Z" style="fill:#92E3A9;stroke:#263238;stroke-linecap:round;stroke-linejoin:round"></path><polygon points="135.42 219.77 142.45 215.24 141.24 206.71 135.83 210.19 135.42 219.77" style="fill:#263238"></polygon><polygon points="136.45 195.72 136.3 199.23 139.84 196.85 139.8 196.56 143.15 186.51 142.81 185.45 133.48 191.7 136.45 195.72" style="fill:#263238"></polygon><path d="M147.76,252.68l-1-6.77L134,252.12l-.09,2.23s1.89,2.47,3.61,4.76l8.93-4.34C147.24,253.54,147.76,252.68,147.76,252.68Z" style="fill:#263238"></path><polygon points="134.9 231.93 134.48 241.61 145.18 234.48 143.96 225.89 134.9 231.93" style="fill:#263238"></polygon><line x1="99.78" y1="235.77" x2="109.49" y2="214.24" style="fill:none;stroke:#263238;stroke-linecap:round;stroke-linejoin:round"></line><polygon points="138.15 189.62 143.42 173.8 136.4 170.29 138.15 189.62" style="fill:#fff;stroke:#263238;stroke-linecap:round;stroke-linejoin:round"></polygon><polygon points="143.42 173.8 150.45 182.37 141.25 180.63 143.42 173.8" style="fill:#fff;stroke:#263238;stroke-linecap:round;stroke-linejoin:round"></polygon><path d="M135.3,124.17s2.41,10.1,5,16,3.29,9.66,2.42,15.59-.88,8.57-2.2,9.23a27.65,27.65,0,0,1-4.83,1.32l2.41,23.28-5.49-7.69L114.87,165l-9.66-25.7s-5-6.15,1.54-13.83S130.91,118.68,135.3,124.17Z" style="fill:#fff;stroke:#263238;stroke-linecap:round;stroke-linejoin:round"></path><path d="M107.63,147l3.07-1.32a5.63,5.63,0,0,1-1.76-5.49c.88-3.29,9.89-5.27,8.79-7.91s-11.42-3.07-4.61-6.15,18.88,1.1,22.84,1.54.22-8.12.22-8.12,7-1.32,1.53-6.37-28.11-2-34.48,4.83-5,12.3-3.07,16,5.49,12.52,5.49,12.52Z" style="fill:#263238;stroke:#263238;stroke-linecap:round;stroke-linejoin:round"></path><path d="M110.7,148.33s-4.39-4.62-6.81-2.42,1.1,7.69,4,9.66,5.49-.44,5.49-.44" style="fill:#fff;stroke:#263238;stroke-linecap:round;stroke-linejoin:round"></path><path d="M135.3,132.51s-2.2-1.75-3.3.66a8.65,8.65,0,0,0-.44,5.05l7,10.55-6.81,1.53" style="fill:none;stroke:#263238;stroke-linecap:round;stroke-linejoin:round"></path><path d="M134.2,154.48a9.39,9.39,0,0,1-9.22-1.76" style="fill:none;stroke:#263238;stroke-linecap:round;stroke-linejoin:round"></path><path d="M126.07,134.49s-5.71-2.2-8.56,3.07" style="fill:none;stroke:#263238;stroke-linecap:round;stroke-linejoin:round"></path><ellipse cx="125.52" cy="141.52" rx="1.43" ry="2.2" style="fill:#263238"></ellipse><path d="M137.93,138.66c0,1.22-.64,2.2-1.42,2.2s-1.43-1-1.43-2.2.64-2.19,1.43-2.19S137.93,137.45,137.93,138.66Z" style="fill:#263238"></path><polygon points="135.74 166.34 125.64 165.46 136.84 179.95 135.74 166.34" style="fill:#263238;stroke:#263238;stroke-miterlimit:10"></polygon><polygon points="114.87 165.02 110.26 173.14 124.76 194.01 132.66 181.93 114.87 165.02" style="fill:#fff;stroke:#263238;stroke-linecap:round;stroke-linejoin:round"></polygon><path d="M79.78,308.69H94.7A4.3,4.3,0,0,1,99,313v10a0,0,0,0,1,0,0H75.48a0,0,0,0,1,0,0V313A4.3,4.3,0,0,1,79.78,308.69Z" style="fill:none;stroke:#263238;stroke-linecap:round;stroke-linejoin:round;stroke-width:4px"></path><rect x="51.61" y="320.11" width="70.62" height="47.17" rx="5.72" style="fill:#636363;stroke:#263238;stroke-linecap:round;stroke-linejoin:round"></rect><path d="M90.85,297s1.84,2.88,3.67,5.51,5.26,3.94,5,5.25a2.56,2.56,0,0,1-2.89,1.84c-1.05-.26-5.25-3.68-5.25-3.68l.79,6.83s1,2.36-.79,3.15-4.46.79-5,0a13.86,13.86,0,0,1-1-2.1s-4.47,0-5.78-.79-2.89-2.1-2.63-5.51,2.37-10,2.37-10Z" style="fill:#fff;stroke:#263238;stroke-linecap:round;stroke-linejoin:round"></path></g></svg>
